<?xml version="1.0" encoding="UTF-8" standalone="no"?>
<!-- Generator: Adobe Illustrator 13.0.0, SVG Export Plug-In . SVG Version: 6.00 Build 14948)  -->
<svg
   xmlns:dc="http://purl.org/dc/elements/1.1/"
   xmlns:cc="http://creativecommons.org/ns#"
   xmlns:rdf="http://www.w3.org/1999/02/22-rdf-syntax-ns#"
   xmlns:svg="http://www.w3.org/2000/svg"
   xmlns="http://www.w3.org/2000/svg"
   xmlns:sodipodi="http://sodipodi.sourceforge.net/DTD/sodipodi-0.dtd"
   xmlns:inkscape="http://www.inkscape.org/namespaces/inkscape"
   version="1.0"
   id="Layer_2"
   x="0px"
   y="0px"
   width="18"
   height="18"
   viewBox="0 0 15.222 17.993"
   enable-background="new 0 0 15.222 17.993"
   xml:space="preserve"
   sodipodi:version="0.32"
   inkscape:version="0.46"
   sodipodi:docname="black-Camel.svg"
   inkscape:output_extension="org.inkscape.output.svg.inkscape"
   inkscape:export-filename="C:\Documents and Settings\Aamir\My Documents\Arimaa Book Graphics\piecesSVG\black-Camel.png"
   inkscape:export-xdpi="300"
   inkscape:export-ydpi="300"><metadata
   id="metadata12"><rdf:RDF><cc:Work
       rdf:about=""><dc:format>image/svg+xml</dc:format><dc:type
         rdf:resource="http://purl.org/dc/dcmitype/StillImage" /></cc:Work></rdf:RDF></metadata><defs
   id="defs10"><inkscape:perspective
     sodipodi:type="inkscape:persp3d"
     inkscape:vp_x="0 : 8.9965 : 1"
     inkscape:vp_y="0 : 1000 : 0"
     inkscape:vp_z="15.222 : 8.9965 : 1"
     inkscape:persp3d-origin="7.6110001 : 5.9976667 : 1"
     id="perspective14" /></defs><sodipodi:namedview
   inkscape:window-height="480"
   inkscape:window-width="640"
   inkscape:pageshadow="2"
   inkscape:pageopacity="0.0"
   guidetolerance="10.0"
   gridtolerance="10.0"
   objecttolerance="10.0"
   borderopacity="1.0"
   bordercolor="#666666"
   pagecolor="#ffffff"
   id="base"
   showgrid="false" />
<path
   d="M 9.533,17.993 C 10.252,17.993 10.651,17.355 10.946,16.887 C 11.036,16.742 11.138,16.577 11.209,16.51 C 11.593,16.125 13.543,14.727 14.759,13.882 L 15.113,13.637 L 14.969,13.229 C 14.964,13.213 14.419,11.631 14.48,9.29 C 14.827,8.78 15.642,7.205 14.957,4.353 C 15.1,3.579 15.449,1.057 14.035,0.409 L 13.923,0.358 L 13.738,0.344 C 13.531,0.344 13.336,0.432 13.186,0.595 C 13.07,0.72 12.956,0.907 12.884,1.266 C 12.827,0.958 12.721,0.665 12.533,0.439 C 12.296,0.151 11.97,0 11.587,0 C 10.989,-0.002 10.759,0.552 10.684,2.311 L 9.335,2.311 C 9.325,2.311 9.314,2.311 9.302,2.311 C 8.802,2.311 7.804,2.367 7.15,2.803 C 6.651,3.136 5.977,3.549 5.693,3.723 L 2.466,3.687 C 1.523,3.773 0.024,4.283 0.001,5.657 C -0.019,6.906 0.185,7.705 0.645,8.171 C 0.762,8.293 0.897,8.388 1.046,8.458 C 1.038,8.518 1.038,8.583 1.044,8.649 C 1.062,8.923 1.194,9.32 1.708,9.662 C 1.953,9.825 2.248,9.907 2.588,9.907 C 3.39,9.907 4.347,9.449 5.118,9.078 C 5.336,8.975 5.536,8.88 5.706,8.805 L 5.788,8.807 C 6.028,9.257 6.517,10.019 7.229,10.343 C 6.912,11.563 6.395,14.394 7.721,16.51 C 8.363,17.535 8.923,17.993 9.533,17.993 L 9.533,17.993 z"
   id="path3"
   style="fill:#ffffff" />
<path
   d="M 14.438,13.419 C 14.438,13.419 13.821,11.684 13.919,9.093 C 13.919,9.093 15.215,7.678 14.378,4.37 C 14.378,4.37 14.975,1.459 13.799,0.922 C 13.799,0.922 13.182,0.564 13.421,3.453 C 13.421,3.453 13.043,2.835 12.285,2.795 C 12.285,2.795 12.723,0.563 11.587,0.563 C 11.587,0.563 11.287,0.423 11.229,2.875 L 9.335,2.875 C 9.335,2.875 8.119,2.834 7.461,3.273 C 6.804,3.712 5.847,4.29 5.847,4.29 L 2.459,4.25 C 2.459,4.25 0.585,4.43 0.565,5.665 C 0.545,6.9 0.744,8.177 1.861,8.017 C 1.861,8.017 1.184,8.635 2.02,9.193 C 2.857,9.751 4.691,8.596 5.608,8.236 L 6.146,8.256 C 6.146,8.256 6.863,9.95 7.939,9.93 C 7.939,9.93 6.623,13.697 8.197,16.208 C 9.772,18.72 10.25,16.665 10.808,16.107 C 11.366,15.549 14.438,13.419 14.438,13.419 z"
   id="path5"
   style="fill:#020000" />
<path
   d="M 13.72,1.399 L 13.76,1.878 C 14.295,3.761 13.042,4.529 13.042,4.529 L 13.121,4.648 C 14.795,3.492 13.72,1.399 13.72,1.399 z M 7.083,7.877 L 6.385,7.877 L 6.584,8.136 L 7.003,8.136 C 7.003,8.136 9.814,12.483 13.501,9.612 L 13.301,9.373 C 13.301,9.373 10.411,11.844 7.083,7.877 z M 9.216,5.486 C 9.574,6.024 9.175,6.642 10.53,6.423 C 11.885,6.204 11.287,4.789 10.551,4.808 C 9.814,4.828 8.858,4.948 9.216,5.486 z M 1.083,5.705 C 1.083,5.705 1.304,5.725 1.284,6.204 C 1.226,7.558 1.661,6.921 1.721,6.204 C 1.781,5.486 2.598,5.805 2.598,5.805 C 1.902,4.568 1.104,5.506 1.104,5.506 L 1.083,5.705 z M 4.053,7.605 C 3.217,7.848 2.041,7.97 2.041,7.97 L 2.041,8.152 C 2.109,8.172 4.122,7.808 4.122,7.808 L 4.053,7.605 z M 11.774,2.809 C 11.951,1.663 11.509,1.011 11.509,1.011 L 11.439,1.399 C 11.616,1.47 11.562,2.845 11.562,2.845 L 11.774,2.809 z"
   id="path7"
   style="fill:#ffffff" />
</svg>