<?xml version="1.0" encoding="UTF-8" standalone="no"?>
<!-- Generator: Adobe Illustrator 13.0.0, SVG Export Plug-In . SVG Version: 6.00 Build 14948)  -->
<svg
   xmlns:dc="http://purl.org/dc/elements/1.1/"
   xmlns:cc="http://creativecommons.org/ns#"
   xmlns:rdf="http://www.w3.org/1999/02/22-rdf-syntax-ns#"
   xmlns:svg="http://www.w3.org/2000/svg"
   xmlns="http://www.w3.org/2000/svg"
   xmlns:sodipodi="http://sodipodi.sourceforge.net/DTD/sodipodi-0.dtd"
   xmlns:inkscape="http://www.inkscape.org/namespaces/inkscape"
   version="1.0"
   id="Layer_1"
   x="0px"
   y="0px"
   width="18"
   height="18"
   viewBox="0 0 18.168 17.871"
   enable-background="new 0 0 18.168 17.871"
   xml:space="preserve"
   sodipodi:version="0.32"
   inkscape:version="0.46"
   sodipodi:docname="black-Dog.svg"
   inkscape:output_extension="org.inkscape.output.svg.inkscape"
   inkscape:export-filename="C:\Documents and Settings\Aamir\My Documents\Arimaa Book Graphics\piecesSVG\omar\black-Dog.png"
   inkscape:export-xdpi="300"
   inkscape:export-ydpi="300"><metadata
   id="metadata245"><rdf:RDF><cc:Work
       rdf:about=""><dc:format>image/svg+xml</dc:format><dc:type
         rdf:resource="http://purl.org/dc/dcmitype/StillImage" /></cc:Work></rdf:RDF></metadata><defs
   id="defs243"><inkscape:perspective
     sodipodi:type="inkscape:persp3d"
     inkscape:vp_x="0 : 8.9355001 : 1"
     inkscape:vp_y="0 : 1000 : 0"
     inkscape:vp_z="18.167999 : 8.9355001 : 1"
     inkscape:persp3d-origin="9.0839996 : 5.9570001 : 1"
     id="perspective247" /></defs><sodipodi:namedview
   inkscape:window-height="480"
   inkscape:window-width="640"
   inkscape:pageshadow="2"
   inkscape:pageopacity="0.0"
   guidetolerance="10.0"
   gridtolerance="10.0"
   objecttolerance="10.0"
   borderopacity="1.0"
   bordercolor="#666666"
   pagecolor="#ffffff"
   id="base"
   showgrid="false" />
<path
   d="M 11.454593,16.706934 C 12.359533,16.547369 12.570188,16.353036 12.926224,15.962173 C 13.179016,15.685473 13.55909,15.270265 14.639021,14.568983 C 17.150932,12.934361 17.675352,11.534124 16.96373,8.3275815 L 16.941899,8.2245064 L 16.871893,8.1436343 C 16.791618,8.0408117 14.917036,5.7539875 12.587284,5.1512882 L 12.264451,4.0978435 C 12.248403,4.0275625 11.68701,1.7559361 10.187714,1.2398456 C 9.9748546,1.1677124 9.7746046,1.146361 9.5946802,1.1780866 C 9.347395,1.2216896 9.1375302,1.3583078 8.988809,1.5773609 C 8.6588806,2.054095 8.6766487,2.8752854 8.7328291,3.4063985 L 7.7544312,3.558811 C 7.2399301,3.0043293 5.6688282,1.4746084 4.136065,1.6809041 L 3.7602645,1.7316318 L 3.7438412,2.110134 C 3.7423146,2.2154999 3.7438504,3.1674961 4.9180123,4.9234824 C 4.8047976,5.126222 4.6833319,5.4272882 4.6392248,5.8042745 L 4.5704201,6.4506422 C 4.3793179,6.631474 4.0814196,6.9737027 4.0190079,7.3868164 C 3.3140713,7.8410279 2.8300464,8.2005397 2.570271,8.4583662 C 2.4205888,8.4646538 2.2140254,8.4800571 2.0075112,8.5164712 C 0.9917805,8.6955719 0.97747,9.2519089 1.0181037,9.4823539 C 1.0681143,9.7659786 1.114173,9.9753612 1.1483028,10.111909 C 0.9921676,10.408121 0.758883,10.997586 0.9721935,11.575018 C 1.1378182,12.021947 1.5154443,12.339193 2.0975124,12.525346 C 2.3517958,12.77021 3.0332433,13.26601 4.2475112,13.051902 C 5.5406623,12.823885 7.5225321,12.542056 7.5243048,12.541742 C 7.6685663,12.525444 9.0280697,12.414585 9.3579909,13.860664 L 9.7076736,15.662414 C 9.6717214,15.883516 9.7056736,16.174542 9.9062596,16.405114 C 10.195878,16.741533 10.701215,16.839775 11.454593,16.706934 L 11.454593,16.706934 z"
   id="path236"
   style="fill:#ffffff" />
<path
   d="M 16.522962,8.4244923 C 16.522962,8.4244923 14.551428,5.992092 12.226714,5.5319844 L 11.832437,4.2288522 C 11.832437,4.2288522 11.324984,2.1076447 10.039746,1.6653036 C 8.7545087,1.2229626 9.2429759,3.7806989 9.2429759,3.7806989 L 7.5799183,4.041041 C 7.5799183,4.041041 5.7986894,1.9104801 4.1954375,2.1264632 C 4.1954375,2.1264632 4.1607923,3.070217 5.4578773,4.9169363 C 5.4578773,4.9169363 5.1531474,5.2722502 5.0865415,5.8533443 C 5.0217082,6.4341258 4.9979012,6.672278 4.9979012,6.672278 C 4.9979012,6.672278 4.3785679,7.1506922 4.4643674,7.6372858 C 4.4643674,7.6372858 2.9281605,8.6118512 2.7789595,8.9059273 C 2.7789595,8.9059273 1.3691113,8.8867535 1.4606934,9.4061412 C 1.5522754,9.9255288 1.6308605,10.179439 1.6308605,10.179439 C 1.6308605,10.179439 0.61880595,11.664746 2.3415098,12.131391 C 2.3415098,12.131391 2.8688667,12.841708 4.1673357,12.612753 C 5.4658047,12.383798 7.4579979,12.09832 7.4579979,12.09832 C 7.4579979,12.09832 9.3592077,11.861785 9.7920856,13.762188 L 10.161878,15.672801 C 10.161878,15.672801 9.8785586,16.527889 11.371133,16.264708 C 12.867254,16.000901 11.986039,15.756002 14.387779,14.19107 C 16.793533,12.628171 17.174144,11.355646 16.522962,8.4244923 z"
   id="path238"
   style="fill:#010101" />
<path
   d="M 9.7439056,11.560912 L 8.5258981,11.676067 L 8.9189022,12.007964 C 8.9189022,12.007964 9.2350408,11.717352 9.8379096,11.912632 C 10.441352,12.105982 12.795813,12.361618 13.662106,10.433191 C 14.527095,8.5077356 13.383118,6.7674463 13.383118,6.7674463 L 12.908766,6.5495056 C 12.908766,6.5495056 14.325591,8.5103664 13.424943,10.041829 C 12.525339,11.57402 11.005412,12.075979 9.7439056,11.560912 z M 10.567513,6.9285182 L 12.053057,6.2315678 L 12.007266,5.971874 L 10.845387,6.6126672 C 10.845387,6.6126672 10.531027,3.119486 10.055973,2.7006146 C 9.5818055,2.2815869 9.6117307,3.7833049 9.680023,4.9428623 L 10.402529,5.6196831 L 10.567513,6.9285182 z M 6.3517773,4.2904952 C 6.1839285,3.7169281 4.704015,2.5385096 4.704015,2.5385096 C 4.8454509,3.7189835 5.7806848,4.6589622 5.7806848,4.6589622 L 6.3517773,4.2904952 z M 6.0856439,7.1503565 C 6.0856439,7.1503565 6.3612763,8.7083631 7.7845407,7.8551537 C 7.7845407,7.8551537 6.867619,6.0757421 6.0856439,7.1503565 z M 4.7883884,7.6505212 L 5.1938302,7.0215617 C 4.5827805,7.1686032 4.7883884,7.6505212 4.7883884,7.6505212 z M 2.9923156,9.1570942 C 1.9708863,9.075829 1.6903013,9.3866745 1.6903013,9.3866745 C 1.8007119,10.225343 2.116015,10.318709 2.116015,10.318709 C 2.071318,10.06522 2.6520444,9.7773041 2.8754248,9.5514837 C 3.0958336,9.3243596 2.9923156,9.1570942 2.9923156,9.1570942 z M 2.3438535,11.025178 L 2.2514646,11.807304 C 2.2514646,11.807304 2.4025252,12.010966 2.7747825,11.945328 C 2.7747825,11.945328 3.6671505,12.212021 4.2048021,12.001156 C 4.2037595,12.000426 2.5729649,12.324534 2.3438535,11.025178 z"
   id="path240"
   style="fill:#ffffff" />
</svg>
