<?xml version="1.0" encoding="UTF-8" standalone="no"?>
<!-- Generator: Adobe Illustrator 13.0.0, SVG Export Plug-In . SVG Version: 6.00 Build 14948)  -->
<svg
   xmlns:dc="http://purl.org/dc/elements/1.1/"
   xmlns:cc="http://creativecommons.org/ns#"
   xmlns:rdf="http://www.w3.org/1999/02/22-rdf-syntax-ns#"
   xmlns:svg="http://www.w3.org/2000/svg"
   xmlns="http://www.w3.org/2000/svg"
   xmlns:sodipodi="http://sodipodi.sourceforge.net/DTD/sodipodi-0.dtd"
   xmlns:inkscape="http://www.inkscape.org/namespaces/inkscape"
   version="1.0"
   id="Layer_2"
   x="0px"
   y="0px"
   width="18"
   height="18"
   viewBox="0 0 17.075 17.089"
   enable-background="new 0 0 17.075 17.089"
   xml:space="preserve"
   sodipodi:version="0.32"
   inkscape:version="0.46"
   sodipodi:docname="black-Horse.svg"
   inkscape:output_extension="org.inkscape.output.svg.inkscape"
   inkscape:export-filename="C:\Documents and Settings\Aamir\My Documents\Arimaa Book Graphics\piecesSVG\omar\black-Horse.png"
   inkscape:export-xdpi="300"
   inkscape:export-ydpi="300"><metadata
   id="metadata12"><rdf:RDF><cc:Work
       rdf:about=""><dc:format>image/svg+xml</dc:format><dc:type
         rdf:resource="http://purl.org/dc/dcmitype/StillImage" /></cc:Work></rdf:RDF></metadata><defs
   id="defs10"><inkscape:perspective
     sodipodi:type="inkscape:persp3d"
     inkscape:vp_x="0 : 8.5445004 : 1"
     inkscape:vp_y="0 : 1000 : 0"
     inkscape:vp_z="17.075001 : 8.5445004 : 1"
     inkscape:persp3d-origin="8.5375004 : 5.6963336 : 1"
     id="perspective14" /></defs><sodipodi:namedview
   inkscape:window-height="840"
   inkscape:window-width="1440"
   inkscape:pageshadow="2"
   inkscape:pageopacity="0.0"
   guidetolerance="10.0"
   gridtolerance="10.0"
   objecttolerance="10.0"
   borderopacity="1.0"
   bordercolor="#666666"
   pagecolor="#ffffff"
   id="base"
   showgrid="false"
   inkscape:zoom="25.666667"
   inkscape:cx="15.428571"
   inkscape:cy="9"
   inkscape:window-x="-4"
   inkscape:window-y="-4"
   inkscape:current-layer="Layer_2" />
<path
   d="M 10.951839,15.769887 C 11.350175,15.624905 11.657291,15.392446 11.862192,15.076513 C 12.26508,14.462487 13.01444,13.316265 14.011726,12.772266 L 14.08192,12.746717 C 14.325489,12.658065 14.972175,12.47441 15.650818,12.710115 L 16.288012,12.929301 L 16.247446,12.257352 L 16.226964,11.903731 L 16.67355,11.628171 L 17.030572,11.409154 L 16.835926,11.037514 C 16.814845,10.995384 16.370779,10.164772 15.428758,9.8554042 L 15.660358,8.8181371 L 15.729164,8.5124703 L 15.468296,8.3430768 L 14.603861,7.7784816 L 14.710382,7.6027516 L 14.818594,7.4264059 L 14.754254,7.2285813 C 14.738092,7.1789137 14.350605,6.0432534 12.522512,5.3256193 L 12.907636,5.2285447 L 12.657952,4.6556946 C 12.411484,4.294297 11.864014,3.7848169 11.191903,3.7986251 L 10.970971,3.4652856 C 10.75335,3.1489385 10.153903,2.6440104 9.3775825,2.8451586 C 9.2776875,2.8048965 9.1639567,2.7792481 9.043236,2.7791299 C 8.5721652,2.1585181 7.5667653,0.99874203 6.6620062,1.1048893 L 6.6089526,1.1117484 L 6.5250705,1.1365324 C 6.2772736,1.2267231 6.1376173,1.4193024 6.1060238,1.7114251 C 5.7282063,1.5549071 5.274594,1.4690754 4.8179034,1.6352972 L 4.5624949,1.7282583 L 4.5245119,1.9949316 C 4.5036455,2.1586412 4.4692131,2.9929316 5.9288969,3.9088255 L 5.9383647,3.9427322 C 5.7723168,4.0759584 5.6165794,4.2322492 5.5184381,4.4020562 C 5.0195514,4.6286507 3.6941505,5.3763568 2.8698558,7.1666501 C 2.7757566,7.2238856 2.5864017,7.3272845 2.273484,7.4411773 L 2.1274039,7.4924305 C 2.1240211,7.4936618 2.1206382,7.4948931 2.1172553,7.4961244 C 1.4981858,7.7214472 0.40948475,8.2958454 0.11644453,9.0643154 C -0.0024169998,9.3719192 0.01405274,9.6829433 0.16292171,9.9630176 L 0.33525945,10.299678 C 0.68086155,10.986069 1.0945538,11.80954 1.7260571,12.028881 C 1.7526787,12.346745 1.8539881,12.751399 2.1650121,12.99544 C 2.3602093,13.147552 2.7031905,13.289932 3.2300761,13.098162 C 4.2038768,12.705417 5.5494072,12.163007 5.3913537,10.984065 L 5.9338883,10.666879 C 6.6802142,10.701722 7.5280922,10.920846 7.6324425,11.207545 C 7.7118596,11.425742 7.8368897,11.698211 7.9754607,11.997358 C 8.2432937,12.577969 8.741642,13.655082 8.5905,14.010829 C 8.268929,14.766698 8.5300209,15.434045 9.2901305,15.796213 C 9.6347315,15.956202 10.347992,15.98967 10.951839,15.769887 L 10.951839,15.769887 z"
   id="path3"
   style="fill:#ffffff" />
<path
   d="M 13.796234,12.377565 C 13.796234,12.377565 14.755254,11.923157 15.798634,12.284704 L 15.762541,11.661888 L 16.438454,11.245395 C 16.438454,11.245395 15.945451,10.30138 14.88946,10.197273 L 15.221198,8.7193832 L 13.9943,7.9141455 L 14.326468,7.3689588 C 14.326468,7.3689588 13.981677,6.305872 12.135998,5.6635975 C 12.135998,5.6635975 11.510085,5.1070057 12.285946,4.909856 C 12.285946,4.909856 11.64885,3.9751886 10.845738,4.3316669 C 10.845738,4.3316669 10.025304,3.8248048 10.602425,3.7210609 C 10.602425,3.7210609 10.109798,3.0096458 9.3368195,3.3331285 C 9.3368195,3.3331285 9.0973216,3.143506 8.8498449,3.2766794 C 8.8498449,3.2766794 7.5700517,1.4524819 6.7163469,1.5515401 C 6.7163469,1.5515401 6.3320372,1.5429646 6.7340476,2.6474793 C 6.7340476,2.6474793 5.8153064,1.7521099 4.9721202,2.0590046 C 4.9721202,2.0590046 4.8720635,2.7735164 6.3256532,3.6226696 L 6.4471387,4.1301222 C 6.4471387,4.1301222 5.8830909,4.5039846 5.8643233,4.7445089 C 5.8643233,4.7445089 4.1664061,5.3213166 3.2284921,7.4651936 C 3.2284921,7.4651936 2.9700459,7.6866424 2.2694729,7.9196016 C 1.5688999,8.1525609 0.15502135,8.9861047 0.56054545,9.7502935 C 0.96606945,10.514482 1.461237,11.75653 2.1759105,11.622834 C 2.1759105,11.622834 2.0144889,13.102903 3.1246034,12.655755 C 4.2347179,12.208607 5.237721,11.759261 4.8763424,10.766381 L 5.8186463,10.210789 C 5.8186463,10.210789 7.7621836,10.245663 8.0555343,11.051637 C 8.348885,11.857611 9.3133535,13.457531 9.0052308,14.18456 C 8.6971075,14.91159 9.1782431,15.244084 9.4850855,15.387167 C 9.7919265,15.530249 10.996458,15.579336 11.487577,14.828799 C 11.978697,14.078264 12.733832,12.9558 13.796234,12.377565 z"
   id="path5"
   style="fill:#020000" />
<path
   d="M 6.5623047,9.2830954 L 6.4411796,9.4765919 C 6.4411796,9.4765919 7.6412916,10.968716 9.9253765,9.6709477 C 12.20946,8.3731798 11.751579,6.5888777 11.751579,6.5888777 L 12.621616,8.1609128 L 12.840671,8.1233248 C 12.840671,8.1233248 11.482997,5.0325821 10.328001,4.7748724 C 10.328001,4.7748724 12.099616,6.145184 11.335695,7.7171626 C 10.571773,9.2891412 8.4098924,10.922661 6.5623047,9.2830954 z M 2.9554287,9.2253364 C 2.9200671,8.7334675 2.0603022,9.1421723 2.0603022,9.1421723 C 1.4938851,9.564785 1.8300599,10.354215 2.1876826,10.344729 C 2.5444597,10.33555 2.989329,9.7158217 2.9554287,9.2253364 z M 8.0523459,5.4537325 C 7.1978637,5.7848516 6.6826656,6.7586893 6.6826656,6.7586893 C 6.7984052,7.0766812 7.8760463,7.0665982 8.2653653,6.3310865 C 8.6546843,5.5955748 8.0523459,5.4537325 8.0523459,5.4537325 z M 5.1726375,2.2599416 L 6.9031515,3.7515244 L 6.6603825,3.1608333 L 5.1726375,2.2599416 z M 7.4014381,3.3153987 L 8.3082928,3.5360426 C 8.3082928,3.5360426 7.2541459,1.86341 6.9547599,1.9723777 L 7.4014381,3.3153987 z M 2.416609,11.449986 L 2.4350594,11.698035 C 2.4350594,11.698035 3.3542361,11.7236 4.3127145,10.73879 L 4.1115755,10.515093 C 4.1115755,10.515093 3.3940972,11.306832 2.416609,11.449986 z M 15.061265,11.598197 C 14.608353,10.235416 12.387237,6.2933474 12.387237,6.2933474 C 13.243978,7.8893767 14.798246,11.693928 14.798246,11.693928 L 15.061265,11.598197 z"
   id="path7"
   style="fill:#ffffff" />
</svg>