<?xml version="1.0" encoding="UTF-8" standalone="no"?>
<!-- Generator: Adobe Illustrator 13.0.0, SVG Export Plug-In . SVG Version: 6.00 Build 14948)  -->
<svg
   xmlns:dc="http://purl.org/dc/elements/1.1/"
   xmlns:cc="http://creativecommons.org/ns#"
   xmlns:rdf="http://www.w3.org/1999/02/22-rdf-syntax-ns#"
   xmlns:svg="http://www.w3.org/2000/svg"
   xmlns="http://www.w3.org/2000/svg"
   xmlns:sodipodi="http://sodipodi.sourceforge.net/DTD/sodipodi-0.dtd"
   xmlns:inkscape="http://www.inkscape.org/namespaces/inkscape"
   version="1.0"
   id="Layer_2"
   x="0px"
   y="0px"
   width="18"
   height="18"
   viewBox="0 0 17.322 17.607"
   enable-background="new 0 0 17.322 17.607"
   xml:space="preserve"
   sodipodi:version="0.32"
   inkscape:version="0.46"
   sodipodi:docname="black-Elephant.svg"
   inkscape:output_extension="org.inkscape.output.svg.inkscape"
   inkscape:export-filename="C:\Documents and Settings\Aamir\My Documents\Arimaa Book Graphics\piecesSVG\black-Elephant.png"
   inkscape:export-xdpi="300"
   inkscape:export-ydpi="300"><metadata
   id="metadata12"><rdf:RDF><cc:Work
       rdf:about=""><dc:format>image/svg+xml</dc:format><dc:type
         rdf:resource="http://purl.org/dc/dcmitype/StillImage" /></cc:Work></rdf:RDF></metadata><defs
   id="defs10"><inkscape:perspective
     sodipodi:type="inkscape:persp3d"
     inkscape:vp_x="0 : 8.8035002 : 1"
     inkscape:vp_y="0 : 1000 : 0"
     inkscape:vp_z="17.322001 : 8.8035002 : 1"
     inkscape:persp3d-origin="8.6610003 : 5.8690001 : 1"
     id="perspective14" /></defs><sodipodi:namedview
   inkscape:window-height="480"
   inkscape:window-width="640"
   inkscape:pageshadow="2"
   inkscape:pageopacity="0.0"
   guidetolerance="10.0"
   gridtolerance="10.0"
   objecttolerance="10.0"
   borderopacity="1.0"
   bordercolor="#666666"
   pagecolor="#ffffff"
   id="base"
   showgrid="false" />
<path
   d="M 6.916,17.607 C 8.205,17.607 9.249,16.861 11.116,15.429 C 11.492,15.3 12.353,15.044 12.824,15.044 C 12.846,15.044 12.864,15.044 12.88,15.046 L 12.939,15.11 C 12.941,15.114 13.177,15.38 13.177,15.772 C 13.177,16.424 13.601,16.721 14.022,16.721 C 14.158,16.721 14.263,16.69 14.293,16.682 L 14.364,16.661 L 14.427,16.618 C 14.559,16.524 17.639,14.329 17.295,10.571 C 17.006,7.419 14.948,6.245 13.717,6.245 C 13.492,6.245 13.29,6.283 13.118,6.356 C 12.796,6.271 12.168,6.122 11.688,6.122 C 11.594,6.122 11.377,6.122 11.172,6.207 C 10.955,6.155 10.613,6.088 10.359,6.088 C 10.345,6.088 10.333,6.088 10.322,6.088 C 10.09,5.798 9.683,5.388 9.1,5.15 C 9.645,3.947 9.99,2.038 8.476,0.846 C 7.773,0.292 6.982,0 6.187,0 C 4.74,0 3.598,0.951 3.32,2.349 C 3.091,2.453 2.817,2.636 2.71,2.948 C 2.64,3.154 2.62,3.479 2.928,3.852 C 3.282,4.28 3.557,4.517 3.893,4.634 C 3.527,5.117 3.191,5.636 2.984,6.134 C 2.316,7.75 2.073,10.57 3.523,11.852 C 3.049,11.821 2.142,11.53 0.894,10.084 L 0.273,9.363 L 0.061,10.293 C 0.046,10.35 -0.27,11.795 0.693,13 C 1.483,13.99 2.863,14.506 4.794,14.531 C 4.88,14.594 4.991,14.676 5.095,14.75 C 5.173,15.559 5.498,17.582 6.857,17.607 L 6.863,17.607 L 6.916,17.607 L 6.916,17.607 z"
   id="path3"
   style="fill:#ffffff" />
<path
   d="M 14.151,16.223 C 14.151,16.223 17.138,14.139 16.816,10.616 C 16.493,7.092 13.808,6.361 13.185,6.877 C 13.185,6.877 11.53,6.383 11.25,6.727 C 11.25,6.727 10.154,6.426 10.133,6.663 C 10.133,6.663 9.552,5.61 8.392,5.46 C 8.392,5.46 10.09,2.731 8.178,1.227 C 6.265,-0.278 3.966,0.645 3.751,2.708 C 3.751,2.708 2.785,2.923 3.301,3.546 C 3.817,4.169 4.052,4.18 4.632,4.18 C 4.632,4.18 5.277,3.694 5.192,3.436 C 5.106,3.179 5.17,3.009 5.406,2.901 C 5.642,2.794 6.029,2.923 6.029,3.009 C 6.029,3.009 4.053,4.813 3.43,6.318 C 2.807,7.823 2.55,10.678 4.075,11.668 L 4.224,12.205 C 4.224,12.205 2.828,13.064 0.53,10.398 C 0.53,10.398 -0.308,14.052 4.956,14.052 C 4.956,14.052 5.386,14.374 5.558,14.482 C 5.558,14.482 5.707,17.103 6.868,17.125 C 8.029,17.147 9.039,16.416 10.887,14.998 C 10.887,14.998 13.208,14.184 13.293,14.783 C 13.293,14.783 13.658,15.17 13.658,15.771 C 13.658,16.372 14.151,16.223 14.151,16.223 z"
   id="path5" />
<path
   d="M 12.819,8.273 C 12.561,8.101 13.056,7.306 13.056,7.306 L 12.905,7.177 C 12.24,8.316 12.69,8.552 12.69,8.552 C 12.69,8.552 14.044,9.046 14.066,10.636 C 14.087,12.227 13.141,13 13.141,13 L 13.098,13.881 L 13.356,13.881 L 13.377,13.108 C 15.741,10.057 12.819,8.273 12.819,8.273 z M 8.071,5.953 C 8.071,5.953 7.898,6.426 7.898,6.834 C 7.898,7.242 8.2,8.08 8.521,7.242 C 8.843,6.405 9.639,6.791 9.639,6.791 C 8.695,5.373 8.071,5.953 8.071,5.953 z M 10.541,9.906 C 10.562,10.186 11.53,9.777 11.638,9.713 C 11.746,9.649 12.154,9.713 11.595,8.896 C 11.035,8.079 10.263,9.068 10.263,9.068 C 10.607,9.133 10.52,9.627 10.541,9.906 z M 12.583,11.131 C 12.583,12.785 11.293,12.399 11.293,12.399 L 10.95,12.27 L 11.229,12.635 L 11.508,12.635 C 13.056,12.592 12.84,11.131 12.84,11.067 L 12.583,11.131 z M 9.897,11.918 C 9.624,11.918 9.347,12.045 9.075,12.299 C 8.497,12.836 7.895,13.11 7.287,13.108 C 5.734,13.104 5.087,12.051 4.601,11.342 C 4.535,11.246 4.455,11.18 4.399,11.125 C 4.39,11.199 4.465,11.973 4.865,12.787 C 5.197,13.463 5.972,14.598 7.429,14.598 L 7.528,14.596 C 9.875,14.514 10.754,13.26 11.005,12.782 L 10.692,12.178 C 10.554,12.033 10.317,11.918 9.897,11.918 z M 6.438,15.041 C 6.438,15.041 6.609,15.771 6.975,16.158 C 7.341,16.545 7.876,15.084 7.876,15.084 C 7.124,15.406 6.438,15.041 6.438,15.041 z M 7.362,7.714 C 7.533,7.714 8.973,8.68 9.339,9.39 L 9.597,9.261 C 9.597,9.261 8.351,7.95 7.857,7.714 C 7.363,7.478 7.297,7.414 7.383,6.554 C 7.469,5.695 9.038,3.245 8.5,2.708 L 8.285,2.901 C 8.285,2.901 8.649,3.03 7.619,5.007 C 6.588,6.984 7.191,7.714 7.362,7.714 z M 6.256,2.696 C 6.366,2.849 6.512,2.389 6.512,2.389 C 6.512,2.389 5.257,1.595 4.796,2.875 L 4.131,2.593 L 4.029,2.747 C 4.029,2.747 4.489,3.054 4.822,3.054 C 4.822,3.054 5.5,1.644 6.256,2.696 z"
   id="path7"
   style="fill:#ffffff" />
</svg>