<?xml version="1.0" encoding="UTF-8" standalone="no"?>
<!-- Generator: Adobe Illustrator 13.0.0, SVG Export Plug-In . SVG Version: 6.00 Build 14948)  -->
<svg
   xmlns:dc="http://purl.org/dc/elements/1.1/"
   xmlns:cc="http://creativecommons.org/ns#"
   xmlns:rdf="http://www.w3.org/1999/02/22-rdf-syntax-ns#"
   xmlns:svg="http://www.w3.org/2000/svg"
   xmlns="http://www.w3.org/2000/svg"
   xmlns:sodipodi="http://sodipodi.sourceforge.net/DTD/sodipodi-0.dtd"
   xmlns:inkscape="http://www.inkscape.org/namespaces/inkscape"
   version="1.0"
   id="Layer_1"
   x="0px"
   y="0px"
   width="18"
   height="18"
   viewBox="0 0 15.593 15.818"
   enable-background="new 0 0 15.593 15.818"
   xml:space="preserve"
   sodipodi:version="0.32"
   inkscape:version="0.46"
   sodipodi:docname="black-Cat.svg"
   inkscape:output_extension="org.inkscape.output.svg.inkscape"
   inkscape:export-filename="C:\Documents and Settings\Aamir\My Documents\Arimaa Book Graphics\piecesSVG\omar\black-Cat.png"
   inkscape:export-xdpi="300"
   inkscape:export-ydpi="300"><metadata
   id="metadata12"><rdf:RDF><cc:Work
       rdf:about=""><dc:format>image/svg+xml</dc:format><dc:type
         rdf:resource="http://purl.org/dc/dcmitype/StillImage" /></cc:Work></rdf:RDF></metadata><defs
   id="defs10"><inkscape:perspective
     sodipodi:type="inkscape:persp3d"
     inkscape:vp_x="0 : 7.9089999 : 1"
     inkscape:vp_y="0 : 1000 : 0"
     inkscape:vp_z="15.593 : 7.9089999 : 1"
     inkscape:persp3d-origin="7.7965002 : 5.2726666 : 1"
     id="perspective14" /></defs><sodipodi:namedview
   inkscape:window-height="667"
   inkscape:window-width="662"
   inkscape:pageshadow="2"
   inkscape:pageopacity="0.0"
   guidetolerance="10.0"
   gridtolerance="10.0"
   objecttolerance="10.0"
   borderopacity="1.0"
   bordercolor="#666666"
   pagecolor="#ffffff"
   id="base"
   showgrid="false"
   inkscape:zoom="25.666667"
   inkscape:cx="9.1599816"
   inkscape:cy="7.4023394"
   inkscape:window-x="88"
   inkscape:window-y="116"
   inkscape:current-layer="Layer_1" />
<path
   d="M 7.9871936,14.2362 C 9.0823936,14.2362 10.143994,14.1546 10.189594,14.1522 L 10.449594,14.133 L 10.536794,13.8826 C 10.553594,13.8354 10.943994,12.7562 12.299994,12.5602 C 13.363994,12.4074 13.854394,12.2018 13.995994,11.8474 C 14.045594,11.7202 14.040794,11.601 14.007994,11.5042 C 13.955994,11.085 13.563194,8.949 10.992794,6.4394 C 10.921594,6.1594 10.722394,5.5242 10.295994,5.1354 C 10.278394,4.6114 10.154394,3.2874 9.4055936,2.6618 C 9.2247936,2.5106 9.0079936,2.4314 8.7767936,2.4314 C 8.0127936,2.4314 7.2439936,3.3042 6.9063936,3.7426 C 6.6791936,3.7114 6.3407936,3.6682 6.0687936,3.6498 C 5.8599936,3.0938 5.2719936,1.9362 3.9303936,1.633 L 3.7031936,1.5818 L 3.5455936,1.7546 C 3.5087936,1.7962 3.1959936,2.1682 3.4239936,2.7858 C 3.5383936,3.0954 3.8591936,3.917 4.0119936,4.305 C 3.7655936,4.6426 3.4671936,5.0986 3.3567936,5.4514 C 2.9599936,5.7362 2.4807936,6.2746 2.5879936,6.9002 L 2.2359936,7.1178 C 1.9575936,7.225 1.5591936,7.6394 1.7215936,8.2666 C 1.6143936,8.5842 1.4207936,9.3362 1.7135936,9.9842 C 1.8895936,10.3706 2.2175936,10.6546 2.6623936,10.8018 C 2.6895936,10.8194 3.3567936,11.1298 3.9335936,11.1298 C 3.9943936,11.1298 4.0535936,11.1258 4.1095936,11.1194 C 4.6327936,11.6098 5.2479936,12.1322 5.7279936,12.3858 C 5.6447936,12.7314 5.5927936,13.2354 5.8335936,13.637 C 5.9719936,13.8634 6.2567936,14.1474 6.8399936,14.1946 C 7.1919936,14.2258 7.5903936,14.2362 7.9871936,14.2362 L 7.9871936,14.2362 z"
   id="path3"
   style="fill:#ffffff" />
<path
   d="M 13.617594,11.6058 C 13.617594,11.6058 13.445594,9.3498 10.631194,6.6426 C 10.631194,6.6426 10.438394,5.6762 9.9007936,5.3322 C 9.9007936,5.3322 9.9223936,3.6138 9.1495936,2.969 C 8.3767936,2.3242 7.0863936,4.1722 7.0863936,4.1722 C 7.0863936,4.1722 6.0975936,4.0218 5.7759936,4.0434 C 5.7759936,4.0434 5.3671936,2.3674 3.8423936,2.0234 C 3.8423936,2.0234 3.6487936,2.2386 3.7991936,2.6466 C 3.9495936,3.0546 4.4655936,4.365 4.4655936,4.365 C 4.4655936,4.365 3.7135936,5.353 3.7135936,5.697 C 3.7135936,5.697 2.6607936,6.3202 3.0687936,7.0722 L 2.4455936,7.4594 C 2.4455936,7.4594 1.9087936,7.6738 2.1447936,8.2762 C 2.1447936,8.2762 1.4351936,9.9738 2.7895936,10.425 C 2.7895936,10.425 3.7343936,10.8762 4.2287936,10.6826 C 4.2287936,10.6826 5.7767936,12.1658 6.2271936,12.1434 C 6.2271936,12.1434 5.5615936,13.6898 6.8719936,13.797 C 8.1823936,13.905 10.158394,13.7538 10.158394,13.7538 C 10.158394,13.7538 10.609594,12.4002 12.242394,12.1642 C 13.875194,11.9282 13.617594,11.6058 13.617594,11.6058 z"
   id="path5" />
<path
   d="M 6.6999936,11.413 L 6.6783936,11.757 C 6.6783936,11.757 11.297594,12.9394 10.911194,7.6962 L 10.610394,7.5674 C 10.609594,7.5666 11.511994,12.057 6.6999936,11.413 z M 2.3167936,9.6506 L 2.3167936,9.7794 L 2.4671936,9.865 L 2.6175936,9.7146 C 2.6175936,9.7146 2.7247936,10.4234 4.7007936,10.2306 L 4.7007936,9.9946 C 4.7007936,9.9946 2.7247936,10.1666 2.7463936,9.285 L 2.7463936,8.8554 L 2.5095936,8.8346 C 2.5095936,8.8346 2.6175936,9.6506 2.3167936,9.6506 z M 3.1975936,7.889 L 2.5959936,7.717 C 2.5959936,7.717 2.1663936,8.3402 2.5527936,8.3402 C 2.9391936,8.3402 3.1543936,8.3186 3.1975936,7.889 z M 3.7991936,6.449 L 3.7559936,5.9986 C 3.7559936,5.9986 3.0895936,6.4498 3.3263936,6.8154 C 3.3263936,6.8146 3.7991936,6.7074 3.7991936,6.449 z M 4.7439936,6.9002 L 5.2167936,7.6738 C 5.2167936,7.6738 6.3991936,7.6522 6.5279936,7.1794 C 6.5279936,7.1794 6.5071936,6.3626 5.5823936,6.3626 C 4.6575936,6.3626 4.7439936,6.9002 4.7439936,6.9002 z M 8.9983936,6.965 C 8.9983936,6.965 9.4455936,5.0898 8.9127936,3.7426 C 8.5479936,2.8186 7.0647936,4.8386 6.9791936,4.989 C 6.9791936,4.989 8.2255936,4.6234 8.3975936,5.0538 C 8.5687936,5.4826 8.9551936,5.117 8.9983936,6.965 z"
   id="path7"
   style="fill:#ffffff" />
</svg>