<?xml version="1.0" encoding="UTF-8" standalone="no"?>
<!-- Generator: Adobe Illustrator 13.0.0, SVG Export Plug-In . SVG Version: 6.00 Build 14948)  -->
<svg
   xmlns:dc="http://purl.org/dc/elements/1.1/"
   xmlns:cc="http://creativecommons.org/ns#"
   xmlns:rdf="http://www.w3.org/1999/02/22-rdf-syntax-ns#"
   xmlns:svg="http://www.w3.org/2000/svg"
   xmlns="http://www.w3.org/2000/svg"
   xmlns:sodipodi="http://sodipodi.sourceforge.net/DTD/sodipodi-0.dtd"
   xmlns:inkscape="http://www.inkscape.org/namespaces/inkscape"
   version="1.0"
   id="Layer_2"
   x="0px"
   y="0px"
   width="18"
   height="18"
   viewBox="0 0 17.323 17.607"
   enable-background="new 0 0 17.323 17.607"
   xml:space="preserve"
   sodipodi:version="0.32"
   inkscape:version="0.46"
   sodipodi:docname="white-Elephant.svg"
   inkscape:output_extension="org.inkscape.output.svg.inkscape"
   inkscape:export-filename="C:\Documents and Settings\Aamir\My Documents\Arimaa Book Graphics\piecesSVG\white-Elephant.png"
   inkscape:export-xdpi="300"
   inkscape:export-ydpi="300"><metadata
   id="metadata26"><rdf:RDF><cc:Work
       rdf:about=""><dc:format>image/svg+xml</dc:format><dc:type
         rdf:resource="http://purl.org/dc/dcmitype/StillImage" /></cc:Work></rdf:RDF></metadata><defs
   id="defs24"><inkscape:perspective
     sodipodi:type="inkscape:persp3d"
     inkscape:vp_x="0 : 8.8035002 : 1"
     inkscape:vp_y="0 : 1000 : 0"
     inkscape:vp_z="17.323 : 8.8035002 : 1"
     inkscape:persp3d-origin="8.6615 : 5.8690001 : 1"
     id="perspective28" /></defs><sodipodi:namedview
   inkscape:window-height="480"
   inkscape:window-width="640"
   inkscape:pageshadow="2"
   inkscape:pageopacity="0.0"
   guidetolerance="10.0"
   gridtolerance="10.0"
   objecttolerance="10.0"
   borderopacity="1.0"
   bordercolor="#666666"
   pagecolor="#ffffff"
   id="base"
   showgrid="false" />
<path
   d="M 10.407,17.607 C 9.118,17.607 8.074,16.861 6.207,15.429 C 5.831,15.3 4.97,15.044 4.499,15.044 C 4.477,15.044 4.459,15.044 4.443,15.046 L 4.384,15.11 C 4.382,15.114 4.146,15.38 4.146,15.772 C 4.146,16.424 3.722,16.721 3.301,16.721 C 3.165,16.721 3.06,16.69 3.03,16.682 L 2.959,16.661 L 2.896,16.618 C 2.764,16.524 -0.316,14.329 0.028,10.571 C 0.316,7.42 2.374,6.247 3.605,6.247 C 3.83,6.247 4.032,6.285 4.204,6.358 C 4.526,6.273 5.154,6.124 5.634,6.124 C 5.728,6.124 5.945,6.124 6.15,6.209 C 6.367,6.157 6.709,6.09 6.963,6.09 C 6.977,6.09 6.989,6.09 7,6.09 C 7.232,5.8 7.639,5.39 8.222,5.152 C 7.677,3.949 7.332,2.04 8.846,0.848 C 9.549,0.292 10.34,0 11.135,0 C 12.582,0 13.724,0.951 14.002,2.349 C 14.231,2.453 14.505,2.636 14.612,2.948 C 14.681,3.155 14.702,3.479 14.393,3.853 C 14.039,4.281 13.764,4.518 13.428,4.635 C 13.794,5.118 14.13,5.637 14.337,6.135 C 15.005,7.752 15.248,10.572 13.798,11.853 C 14.272,11.822 15.179,11.531 16.427,10.085 L 17.048,9.364 L 17.26,10.294 C 17.275,10.351 17.591,11.796 16.628,13.001 C 15.838,13.991 14.458,14.507 12.527,14.532 C 12.441,14.595 12.33,14.677 12.226,14.751 C 12.148,15.56 11.823,17.583 10.464,17.608 L 10.46,17.608 L 10.407,17.608 L 10.407,17.607 z"
   id="path3" />
<path
   d="M 3.171,16.223 C 3.171,16.223 0.184,14.139 0.506,10.616 C 0.83,7.091 3.514,6.36 4.137,6.876 C 4.137,6.876 5.792,6.382 6.072,6.726 C 6.072,6.726 7.168,6.425 7.189,6.662 C 7.189,6.662 7.77,5.609 8.93,5.459 C 8.93,5.459 7.232,2.73 9.144,1.226 C 11.057,-0.278 13.356,0.645 13.571,2.708 C 13.571,2.708 14.537,2.923 14.021,3.546 C 13.505,4.169 13.27,4.18 12.69,4.18 C 12.69,4.18 12.045,3.694 12.13,3.436 C 12.216,3.178 12.151,3.008 11.916,2.901 C 11.68,2.794 11.293,2.923 11.293,3.009 C 11.293,3.009 13.269,4.813 13.892,6.318 C 14.515,7.823 14.772,10.678 13.247,11.668 L 13.098,12.205 C 13.098,12.205 14.494,13.064 16.792,10.398 C 16.792,10.398 17.63,14.052 12.366,14.052 C 12.366,14.052 11.936,14.374 11.764,14.482 C 11.764,14.482 11.615,17.103 10.454,17.125 C 9.293,17.147 8.283,16.416 6.435,14.998 C 6.435,14.998 4.114,14.184 4.029,14.783 C 4.029,14.783 3.664,15.17 3.664,15.771 C 3.664,16.372 3.171,16.223 3.171,16.223 z"
   id="path5"
   style="fill:#ffffff" />
<path
   d="M 3.256,10.637 C 3.278,9.047 4.632,8.553 4.632,8.553 C 4.632,8.553 5.082,8.317 4.417,7.178 L 4.266,7.306 C 4.266,7.306 4.761,8.1 4.503,8.273 C 4.503,8.273 1.581,10.057 3.944,13.107 L 3.965,13.88 L 4.223,13.88 L 4.181,13 C 4.181,13 3.235,12.227 3.256,10.637 z"
   id="path7" />
<path
   d="M 8.801,7.242 C 9.122,8.08 9.424,7.242 9.424,6.834 C 9.424,6.426 9.251,5.953 9.251,5.953 C 9.251,5.953 8.627,5.373 7.683,6.791 C 7.683,6.791 8.479,6.404 8.801,7.242 z"
   id="path9" />
<path
   d="M 5.685,9.713 C 5.792,9.777 6.76,10.186 6.782,9.906 C 6.802,9.627 6.715,9.133 7.06,9.068 C 7.06,9.068 6.288,8.079 5.728,8.896 C 5.169,9.713 5.578,9.649 5.685,9.713 z"
   id="path11" />
<path
   d="M 6.373,12.27 L 6.03,12.398 C 6.03,12.398 4.74,12.785 4.74,11.13 L 4.482,11.066 C 4.482,11.13 4.266,12.591 5.814,12.634 L 6.093,12.634"
   id="path13" />
<path
   d="M 9.893,14.598 L 9.794,14.596 C 7.447,14.514 6.568,13.26 6.317,12.782 L 6.63,12.178 C 6.768,12.033 7.005,11.918 7.425,11.918 C 7.698,11.918 7.975,12.045 8.247,12.299 C 8.825,12.836 9.427,13.11 10.035,13.108 C 11.588,13.104 12.235,12.051 12.721,11.342 C 12.787,11.246 12.867,11.18 12.923,11.125 C 12.932,11.199 12.857,11.973 12.457,12.787 C 12.125,13.463 11.35,14.598 9.893,14.598 L 9.893,14.598 z"
   id="path15" />
<path
   d="M 9.446,15.084 C 9.446,15.084 9.981,16.545 10.347,16.158 C 10.713,15.771 10.884,15.041 10.884,15.041 C 10.884,15.041 10.199,15.406 9.446,15.084 z"
   id="path17" />
<path
   d="M 7.726,9.261 C 7.726,9.261 8.972,7.95 9.466,7.714 C 9.96,7.478 10.026,7.414 9.94,6.554 C 9.853,5.695 8.285,3.245 8.822,2.708 L 9.038,2.901 C 9.038,2.901 8.674,3.03 9.704,5.007 C 10.734,6.984 10.132,7.714 9.961,7.714 C 9.79,7.714 8.349,8.68 7.984,9.39 L 7.726,9.261 z"
   id="path19" />
<path
   d="M 13.293,2.747 C 13.293,2.747 12.833,3.054 12.5,3.054 C 12.5,3.054 11.821,1.643 11.065,2.696 C 10.955,2.849 10.809,2.389 10.809,2.389 C 10.809,2.389 12.064,1.596 12.525,2.875 L 13.19,2.593 L 13.293,2.747 z"
   id="path21" />
</svg>