<?xml version="1.0" encoding="UTF-8" standalone="no"?>
<!-- Generator: Adobe Illustrator 13.0.0, SVG Export Plug-In . SVG Version: 6.00 Build 14948)  -->
<svg
   xmlns:dc="http://purl.org/dc/elements/1.1/"
   xmlns:cc="http://creativecommons.org/ns#"
   xmlns:rdf="http://www.w3.org/1999/02/22-rdf-syntax-ns#"
   xmlns:svg="http://www.w3.org/2000/svg"
   xmlns="http://www.w3.org/2000/svg"
   xmlns:sodipodi="http://sodipodi.sourceforge.net/DTD/sodipodi-0.dtd"
   xmlns:inkscape="http://www.inkscape.org/namespaces/inkscape"
   version="1.0"
   id="Layer_1"
   x="0px"
   y="0px"
   width="18"
   height="18"
   viewBox="0 0 18.169 17.871"
   enable-background="new 0 0 18.169 17.871"
   xml:space="preserve"
   sodipodi:version="0.32"
   inkscape:version="0.46"
   sodipodi:docname="white-dog.svg"
   inkscape:output_extension="org.inkscape.output.svg.inkscape"
   inkscape:export-filename="C:\Documents and Settings\Aamir\My Documents\Arimaa Book Graphics\piecesSVG\omar\white-dog.png"
   inkscape:export-xdpi="300"
   inkscape:export-ydpi="300"><metadata
   id="metadata245"><rdf:RDF><cc:Work
       rdf:about=""><dc:format>image/svg+xml</dc:format><dc:type
         rdf:resource="http://purl.org/dc/dcmitype/StillImage" /></cc:Work></rdf:RDF></metadata><defs
   id="defs243"><inkscape:perspective
     sodipodi:type="inkscape:persp3d"
     inkscape:vp_x="0 : 8.9355001 : 1"
     inkscape:vp_y="0 : 1000 : 0"
     inkscape:vp_z="18.169001 : 8.9355001 : 1"
     inkscape:persp3d-origin="9.0845003 : 5.9570001 : 1"
     id="perspective247" /></defs><sodipodi:namedview
   inkscape:window-height="480"
   inkscape:window-width="640"
   inkscape:pageshadow="2"
   inkscape:pageopacity="0.0"
   guidetolerance="10.0"
   gridtolerance="10.0"
   objecttolerance="10.0"
   borderopacity="1.0"
   bordercolor="#666666"
   pagecolor="#ffffff"
   id="base"
   showgrid="false" />
<path
   d="M 6.7117097,16.824415 C 5.8076562,16.665006 5.5952286,16.470362 5.2400786,16.079655 C 4.9872867,15.802955 4.6063262,15.387591 3.5281686,14.686622 C 1.0144836,13.051686 0.49230663,11.649103 1.2046581,8.443603 L 1.2273749,8.3406841 L 1.2947228,8.2593432 C 1.3767699,8.1568332 3.2495792,5.8696964 5.58199,5.267466 L 5.9027381,4.2154814 C 5.9196724,4.1453566 6.4801787,1.873574 7.9803609,1.3576397 C 8.1896752,1.2848814 8.3899251,1.26353 8.5707357,1.2954118 C 8.8197936,1.3393275 9.0296584,1.4759457 9.1774934,1.6948424 C 9.508308,2.1717328 9.4878809,2.9924544 9.4325869,3.5237238 L 10.411872,3.6762925 C 10.926373,3.1218109 12.499247,1.5924026 14.03201,1.7986982 L 14.406038,1.8491134 L 14.420688,2.227303 C 14.423832,2.3338678 14.422296,3.285864 13.247248,5.041694 C 13.360462,5.2444336 13.482815,5.5456561 13.527807,5.9227987 L 13.596769,6.56828 C 13.786985,6.7489555 14.0865,7.0923831 14.147295,7.504298 C 14.851345,7.9583532 15.33537,8.3178651 15.595875,8.5767341 C 15.743785,8.5827091 15.953893,8.5987376 16.158635,8.6348391 C 17.174365,8.8139398 17.190449,9.3705894 17.149815,9.6010344 C 17.099805,9.884659 17.053746,10.094042 17.019616,10.23059 C 17.176638,10.526959 17.410652,11.117466 17.197341,11.694898 C 17.029944,12.141515 16.654247,12.458187 16.072179,12.644339 C 15.81774,12.89009 15.134519,13.385577 13.922024,13.171781 C 12.627987,12.943608 10.645231,12.661622 10.643458,12.66131 C 10.499197,12.645011 9.139849,12.533266 8.8097715,13.980231 L 8.4600883,15.781981 C 8.4961968,16.002197 8.4640176,16.293536 8.2616592,16.523795 C 7.9704244,16.859015 7.465974,16.957413 6.7117097,16.824415 L 6.7117097,16.824415 z"
   id="path236"
   style="fill:#010101" />
<path
   d="M 1.6433407,8.5419739 C 1.6433407,8.5419739 3.613102,6.109261 5.9378165,5.6491533 L 6.3329793,4.3461775 C 6.3329793,4.3461775 6.8404325,2.2249699 8.1265562,1.7827852 C 9.4091346,1.3399753 8.9233264,3.8981804 8.9233264,3.8981804 L 10.585654,4.15748 C 10.585654,4.15748 12.366883,2.0269192 13.970135,2.2429021 C 13.970135,2.2429021 14.006553,3.1869686 12.707695,5.0333754 C 12.707695,5.0333754 13.014198,5.3890017 13.079031,5.9697832 C 13.145637,6.5508774 13.168558,6.7888732 13.168558,6.7888732 C 13.168558,6.7888732 13.788778,7.2674438 13.702978,7.7540373 C 13.702978,7.7540373 15.239184,8.7286027 15.388386,9.0226788 C 15.388386,9.0226788 16.798234,9.0035051 16.706652,9.5228927 C 16.615069,10.04228 16.536485,10.296191 16.536485,10.296191 C 16.536485,10.296191 17.546923,11.7803 15.824219,12.246944 C 15.824219,12.246944 15.298635,12.957573 14.000166,12.728619 C 12.699924,12.499351 10.709503,12.214185 10.709503,12.214185 C 10.709503,12.214185 8.8081372,11.978536 8.3736429,13.877741 L 8.0001489,15.788614 C 8.0001489,15.788614 8.2852413,16.644016 6.7900077,16.380366 C 5.2965467,16.117029 6.1768743,15.871973 3.7742479,14.306884 C 1.3709963,12.74534 0.99215827,11.473128 1.6433407,8.5419739 z"
   id="path238"
   style="fill:#ffffff" />
<path
   d="M 4.7403165,10.16004 C 3.8387829,8.6284218 5.2556076,6.6675609 5.2556076,6.6675609 L 4.7794835,6.8851891 C 4.7794835,6.8851891 3.6355058,8.6254783 4.5012251,10.551977 C 5.3671007,12.477589 7.7228647,12.224924 8.3254211,12.031418 C 8.9286025,11.834365 9.2463575,12.126176 9.2463575,12.126176 L 9.6393616,11.794278 L 8.4232826,11.67855 C 7.1600043,12.193304 5.6409637,11.691502 4.7403165,10.16004 z M 7.7620013,5.736852 L 8.4845064,5.0600313 C 8.5563443,3.901099 8.5862695,2.399381 8.1104861,2.8172099 C 7.6347026,3.2350387 7.3200296,6.7299925 7.3200296,6.7299925 L 6.1599233,6.0895119 L 6.113976,6.3500919 L 7.5987906,7.0459997 L 7.7620013,5.736852 z M 12.385617,4.7764438 C 12.385617,4.7764438 13.322625,3.8367777 13.46406,2.6563036 C 13.46406,2.6563036 11.982218,3.835296 11.816298,4.4082894 L 12.385617,4.7764438 z M 10.382649,7.9727915 C 11.805912,8.8260009 12.081545,7.2679944 12.081545,7.2679944 C 11.298684,6.1932237 10.382649,7.9727915 10.382649,7.9727915 z M 12.973359,7.1391995 L 13.377028,7.7678465 C 13.377914,7.7680028 13.583522,7.2860848 12.973359,7.1391995 z M 15.291034,9.668079 C 15.511756,9.8934304 16.095141,10.181815 16.050444,10.435304 C 16.050444,10.435304 16.365747,10.341938 16.476158,9.5032697 C 16.476158,9.5032697 16.195572,9.1924242 15.17237,9.2733769 C 15.173987,9.2745758 15.070469,9.4418412 15.291034,9.668079 z M 13.962543,12.117908 C 14.500194,12.328773 15.39079,12.061766 15.39079,12.061766 C 15.763047,12.127406 15.914108,11.923743 15.914108,11.923743 L 15.821719,11.141617 C 15.592452,12.441859 13.962543,12.117908 13.962543,12.117908 z"
   id="path240"
   style="fill:#010101" />
</svg>
