<?xml version="1.0" encoding="UTF-8" standalone="no"?>
<!-- Generator: Adobe Illustrator 13.0.0, SVG Export Plug-In . SVG Version: 6.00 Build 14948)  -->
<svg
   xmlns:dc="http://purl.org/dc/elements/1.1/"
   xmlns:cc="http://creativecommons.org/ns#"
   xmlns:rdf="http://www.w3.org/1999/02/22-rdf-syntax-ns#"
   xmlns:svg="http://www.w3.org/2000/svg"
   xmlns="http://www.w3.org/2000/svg"
   xmlns:sodipodi="http://sodipodi.sourceforge.net/DTD/sodipodi-0.dtd"
   xmlns:inkscape="http://www.inkscape.org/namespaces/inkscape"
   version="1.0"
   id="Layer_1"
   x="0px"
   y="0px"
   width="18"
   height="18"
   viewBox="0 0 15.593 15.818"
   enable-background="new 0 0 15.593 15.818"
   xml:space="preserve"
   sodipodi:version="0.32"
   inkscape:version="0.46"
   sodipodi:docname="white-Cat.svg"
   inkscape:output_extension="org.inkscape.output.svg.inkscape"
   inkscape:export-filename="C:\Documents and Settings\Aamir\My Documents\Arimaa Book Graphics\piecesSVG\omar\white-Cat.png"
   inkscape:export-xdpi="300"
   inkscape:export-ydpi="300"><metadata
   id="metadata12"><rdf:RDF><cc:Work
       rdf:about=""><dc:format>image/svg+xml</dc:format><dc:type
         rdf:resource="http://purl.org/dc/dcmitype/StillImage" /></cc:Work></rdf:RDF></metadata><defs
   id="defs10"><inkscape:perspective
     sodipodi:type="inkscape:persp3d"
     inkscape:vp_x="0 : 7.9089999 : 1"
     inkscape:vp_y="0 : 1000 : 0"
     inkscape:vp_z="15.593 : 7.9089999 : 1"
     inkscape:persp3d-origin="7.7965002 : 5.2726666 : 1"
     id="perspective14" /></defs><sodipodi:namedview
   inkscape:window-height="840"
   inkscape:window-width="1440"
   inkscape:pageshadow="2"
   inkscape:pageopacity="0.0"
   guidetolerance="10.0"
   gridtolerance="10.0"
   objecttolerance="10.0"
   borderopacity="1.0"
   bordercolor="#666666"
   pagecolor="#ffffff"
   id="base"
   showgrid="false"
   inkscape:zoom="25.666667"
   inkscape:cx="9.1818182"
   inkscape:cy="10.869962"
   inkscape:window-x="-4"
   inkscape:window-y="-4"
   inkscape:current-layer="Layer_1" />
<path
   d="M 7.6056064,14.2362 C 6.5104064,14.2362 5.4488064,14.1546 5.4032064,14.1522 L 5.1432064,14.133 L 5.0552064,13.8818 C 5.0384064,13.8346 4.6480064,12.7554 3.2920064,12.5594 C 2.2280064,12.4066 1.7376064,12.201 1.5960064,11.8466 C 1.5464064,11.7194 1.5512064,11.6002 1.5840064,11.5034 C 1.6368064,11.0842 2.0288064,8.9482 4.5992064,6.4394 C 4.6704064,6.1594 4.8696064,5.5242 5.2960064,5.1354 C 5.3136064,4.6114 5.4376064,3.2874 6.1864064,2.6618 C 6.3680064,2.5106 6.5848064,2.4314 6.8152064,2.4314 C 7.5792064,2.4314 8.3480064,3.3042 8.6856064,3.7426 C 8.9128064,3.7114 9.2520064,3.6682 9.5240064,3.6506 C 9.7328064,3.0938 10.320806,1.9362 11.662406,1.6338 L 11.889606,1.5818 L 12.046406,1.7546 C 12.084006,1.7954 12.396806,2.1682 12.168006,2.7858 C 12.053606,3.0954 11.732806,3.917 11.580006,4.305 C 11.827206,4.6426 12.125606,5.0986 12.235206,5.4514 C 12.632006,5.7362 13.111206,6.2746 13.004006,6.9002 L 13.356006,7.1178 C 13.634406,7.225 14.032806,7.6394 13.870406,8.2674 C 13.977606,8.585 14.171206,9.337 13.878406,9.985 C 13.702406,10.3714 13.374406,10.6554 12.929606,10.8026 C 12.902406,10.8202 12.235206,11.1306 11.658406,11.1306 C 11.597606,11.1306 11.538406,11.1266 11.482406,11.1202 C 10.959206,11.6106 10.344006,12.133 9.8640064,12.3866 C 9.9472064,12.7322 9.9992064,13.2362 9.7584064,13.6378 C 9.6200064,13.8642 9.3352064,14.1482 8.7520064,14.1954 C 8.4008064,14.2258 8.0024064,14.2362 7.6056064,14.2362 L 7.6056064,14.2362 z"
   id="path3" />
<path
   d="M 1.9752064,11.6058 C 1.9752064,11.6058 2.1472064,9.3498 4.9616064,6.6426 C 4.9616064,6.6426 5.1544064,5.6762 5.6920064,5.3322 C 5.6920064,5.3322 5.6704064,3.6138 6.4432064,2.969 C 7.2160064,2.3242 8.5056064,4.1722 8.5056064,4.1722 C 8.5056064,4.1722 9.4952064,4.0218 9.8168064,4.0434 C 9.8168064,4.0434 10.225606,2.3674 11.750406,2.0234 C 11.750406,2.0234 11.944006,2.2386 11.793606,2.6466 C 11.643206,3.0546 11.127206,4.365 11.127206,4.365 C 11.127206,4.365 11.879206,5.353 11.879206,5.697 C 11.879206,5.697 12.932006,6.3202 12.524006,7.0722 L 13.146406,7.4586 C 13.146406,7.4586 13.683206,7.673 13.447206,8.2754 C 13.447206,8.2754 14.156806,9.973 12.802406,10.4242 C 12.802406,10.4242 11.857606,10.8754 11.363206,10.6818 C 11.363206,10.6818 9.8152064,12.165 9.3648064,12.1426 C 9.3648064,12.1426 10.030406,13.689 8.7200064,13.7962 C 7.4096064,13.9042 5.4336064,13.753 5.4336064,13.753 C 5.4336064,13.753 4.9824064,12.3994 3.3496064,12.1634 C 1.7168064,11.9274 1.9752064,11.6058 1.9752064,11.6058 z"
   id="path5"
   style="fill:#ffffff" />
<path
   d="M 4.9824064,7.5666 L 4.6816064,7.6954 C 4.2952064,12.9386 8.9144064,11.7562 8.9144064,11.7562 L 8.8928064,11.4122 C 4.0800064,12.057 4.9824064,7.5666 4.9824064,7.5666 z M 13.082406,8.8346 L 12.845606,8.8554 L 12.845606,9.285 C 12.866406,10.1666 10.891206,9.9946 10.891206,9.9946 L 10.891206,10.2306 C 12.868006,10.4234 12.974406,9.7146 12.974406,9.7146 L 13.124806,9.865 L 13.275206,9.7794 L 13.275206,9.6506 C 12.975206,9.6506 13.082406,8.8346 13.082406,8.8346 z M 13.094406,7.6498 L 13.044806,7.5794 L 12.962406,7.6026 L 12.361606,7.7738 L 12.264806,7.8018 L 12.274406,7.901 C 12.330406,8.4602 12.691206,8.4602 13.040006,8.4602 C 13.197606,8.4602 13.265606,8.3778 13.290406,8.3282 C 13.400806,8.1202 13.168806,7.7554 13.094406,7.6498 z M 12.240806,6.9314 L 12.324006,6.9498 L 12.368806,6.8786 C 12.605606,6.513 12.187206,6.0906 11.904006,5.8994 L 11.736806,5.7858 L 11.716806,5.9866 L 11.673606,6.449 C 11.672806,6.793 12.183206,6.9186 12.240806,6.9314 z M 10.009606,6.3634 C 9.0856064,6.3634 9.0640064,7.1802 9.0640064,7.1802 C 9.1928064,7.653 10.375206,7.6746 10.375206,7.6746 L 10.848006,6.901 C 10.848006,6.9002 10.934406,6.3634 10.009606,6.3634 z M 6.7136064,6.9674 C 6.7448064,5.693 6.9376064,5.5218 7.0920064,5.3834 C 7.1656064,5.3178 7.2480064,5.245 7.3080064,5.097 C 7.3536064,4.9802 7.5792064,4.9634 7.7104064,4.9634 C 8.0968064,4.9634 8.5760064,5.1018 8.5800064,5.1034 L 8.8632064,5.1858 L 8.7184064,4.9298 C 8.7096064,4.9146 7.6560064,3.3818 6.9816064,3.3818 C 6.8496064,3.3818 6.6720064,3.4362 6.5688064,3.6978 C 6.0272064,5.0642 6.4584064,6.9138 6.4768064,6.9922 L 6.7136064,6.9674 z"
   id="path7" />
</svg>