<?xml version="1.0" encoding="UTF-8" standalone="no"?>
<!-- Generator: Adobe Illustrator 13.0.0, SVG Export Plug-In . SVG Version: 6.00 Build 14948)  -->
<svg
   xmlns:dc="http://purl.org/dc/elements/1.1/"
   xmlns:cc="http://creativecommons.org/ns#"
   xmlns:rdf="http://www.w3.org/1999/02/22-rdf-syntax-ns#"
   xmlns:svg="http://www.w3.org/2000/svg"
   xmlns="http://www.w3.org/2000/svg"
   xmlns:sodipodi="http://sodipodi.sourceforge.net/DTD/sodipodi-0.dtd"
   xmlns:inkscape="http://www.inkscape.org/namespaces/inkscape"
   version="1.0"
   id="Layer_2"
   x="0px"
   y="0px"
   width="18"
   height="18"
   viewBox="0 0 9.964 17.618"
   enable-background="new 0 0 9.964 17.618"
   xml:space="preserve"
   sodipodi:version="0.32"
   inkscape:version="0.46"
   sodipodi:docname="black-Rabbit.svg"
   inkscape:output_extension="org.inkscape.output.svg.inkscape"
   inkscape:export-filename="C:\Documents and Settings\Aamir\My Documents\Arimaa Book Graphics\piecesSVG\omar\black-Rabbit.png"
   inkscape:export-xdpi="300"
   inkscape:export-ydpi="300"><metadata
   id="metadata12"><rdf:RDF><cc:Work
       rdf:about=""><dc:format>image/svg+xml</dc:format><dc:type
         rdf:resource="http://purl.org/dc/dcmitype/StillImage" /></cc:Work></rdf:RDF></metadata><defs
   id="defs10"><inkscape:perspective
     sodipodi:type="inkscape:persp3d"
     inkscape:vp_x="0 : 8.809 : 1"
     inkscape:vp_y="0 : 1000 : 0"
     inkscape:vp_z="9.9639997 : 8.809 : 1"
     inkscape:persp3d-origin="4.9819999 : 5.8726667 : 1"
     id="perspective14" /></defs><sodipodi:namedview
   inkscape:window-height="480"
   inkscape:window-width="640"
   inkscape:pageshadow="2"
   inkscape:pageopacity="0.0"
   guidetolerance="10.0"
   gridtolerance="10.0"
   objecttolerance="10.0"
   borderopacity="1.0"
   bordercolor="#666666"
   pagecolor="#ffffff"
   id="base"
   showgrid="false" />
<path
   d="M 5.872,17.618 C 6.611,17.618 7.332,17.313 7.848,16.781 C 8.154,16.469 8.416,16.132 8.663,15.817 C 9.085,15.272 9.45,14.801 9.809,14.801 L 9.964,13.777 C 9.834,13.744 9.667,13.663 9.629,13.614 C 9.648,13.614 9.665,13.51 9.683,13.385 C 9.781,12.658 9.964,11.305 9.042,10.5 C 8.412,9.95 7.929,9.411 7.728,9.177 C 7.669,8.318 7.367,4.557 6.463,1.59 C 6.142,0.535 5.883,0 5.367,0 L 5.128,0 L 4.896,0.222 C 4.366,0.839 4.622,3.534 4.626,3.56 C 4.664,3.812 4.747,4.233 4.857,4.783 C 5.04,5.691 5.308,7.006 5.546,8.5 C 5.01,6.81 3.243,1.689 1.226,0.599 L 0.826,0.383 L 0.555,0.75 C 0.283,1.126 -0.305,2.846 3.405,9.312 C 2.32,9.985 0.03,11.568 0.002,12.933 C -0.012,13.565 0.146,14.05 0.466,14.379 C 0.723,14.642 1.016,14.731 1.219,14.761 C 1.514,15.018 2.181,15.515 2.901,15.515 C 2.905,15.515 2.909,15.515 2.913,15.515 C 3.321,15.515 3.687,15.645 4.06,16.559 C 4.324,17.211 5.019,17.618 5.872,17.618 L 5.872,17.618 z"
   id="path3"
   style="fill:#ffffff" />
<path
   d="M 9.841,14.282 C 9.841,14.282 9.129,14.112 9.129,13.683 C 9.129,13.256 9.585,11.66 8.701,10.89 C 7.817,10.12 7.219,9.381 7.219,9.381 C 7.219,9.381 6.962,5.018 5.965,1.741 C 4.967,-1.537 5.024,2.739 5.138,3.48 C 5.253,4.221 5.765,6.415 6.164,9.094 L 5.195,9.123 C 5.195,9.123 3.143,2.226 0.976,1.057 C 0.976,1.057 -0.021,2.426 4.112,9.494 C 4.112,9.494 0.549,11.547 0.52,12.943 C 0.491,14.339 1.431,14.254 1.431,14.254 C 1.431,14.254 2.202,15.025 2.943,14.995 C 3.684,14.968 4.168,15.45 4.54,16.363 C 4.909,17.275 6.534,17.388 7.475,16.42 C 8.416,15.45 8.93,14.253 9.841,14.282 z"
   id="path5" />
<path
   d="M 4.944,14.975 C 5.11,15.067 5.249,15.168 5.337,15.279 C 5.793,15.849 5.108,15.935 5.851,16.134 C 6.592,16.334 8.045,14.311 8.045,14.311 L 7.732,14.225 C 7.732,14.225 5.851,16.676 5.68,15.707 C 5.606,15.285 5.377,14.978 5.078,14.756 C 4.304,14.176 4.258,14.603 4.944,14.975 z M 3.656,11.887 C 3.798,12.058 4.112,12.287 4.568,12.173 C 5.024,12.058 4.996,11.602 4.996,11.602 C 4.996,11.602 4.825,11.061 4.283,11.09 C 3.741,11.119 3.513,11.716 3.656,11.887 z M 0.921,12.6 C 0.921,12.743 1.005,13.058 1.005,13.058 C 1.005,13.058 1.204,13.683 1.547,12.97 C 1.547,12.97 2.03,12.799 1.86,12.572 C 1.69,12.345 0.921,12.458 0.921,12.6 z M 1.461,13.569 L 1.683,13.911 L 1.653,14.152 L 1.834,14.14 C 1.834,13.996 3.029,14.112 3.029,14.112 C 2.952,14.114 2.927,13.971 2.856,13.973 C 1.735,14.006 1.605,13.484 1.605,13.484 L 1.461,13.569 z M 4.312,8.968658 L 4.511,9.266 C 4.511,9.266 5.0825281,9.2770087 4.4932727,8.4416797 C 4.4926963,8.4408626 3.2090519,6.3029437 4.312,8.968658 z"
   id="path7"
   style="fill:#ffffff"
   sodipodi:nodetypes="cssccssccscsccccsccccccsccccsc" />
</svg>