<?xml version="1.0" encoding="UTF-8" standalone="no"?>
<!-- Generator: Adobe Illustrator 13.0.0, SVG Export Plug-In . SVG Version: 6.00 Build 14948)  -->
<svg
   xmlns:dc="http://purl.org/dc/elements/1.1/"
   xmlns:cc="http://creativecommons.org/ns#"
   xmlns:rdf="http://www.w3.org/1999/02/22-rdf-syntax-ns#"
   xmlns:svg="http://www.w3.org/2000/svg"
   xmlns="http://www.w3.org/2000/svg"
   xmlns:sodipodi="http://sodipodi.sourceforge.net/DTD/sodipodi-0.dtd"
   xmlns:inkscape="http://www.inkscape.org/namespaces/inkscape"
   version="1.0"
   id="Layer_2"
   x="0px"
   y="0px"
   width="18"
   height="18"
   viewBox="0 0 15.223 17.993"
   enable-background="new 0 0 15.223 17.993"
   xml:space="preserve"
   sodipodi:version="0.32"
   inkscape:version="0.46"
   sodipodi:docname="white-Camel.svg"
   inkscape:output_extension="org.inkscape.output.svg.inkscape"
   inkscape:export-filename="C:\Documents and Settings\Aamir\My Documents\Arimaa Book Graphics\piecesSVG\white-Camel.png"
   inkscape:export-xdpi="300"
   inkscape:export-ydpi="300"><metadata
   id="metadata12"><rdf:RDF><cc:Work
       rdf:about=""><dc:format>image/svg+xml</dc:format><dc:type
         rdf:resource="http://purl.org/dc/dcmitype/StillImage" /></cc:Work></rdf:RDF></metadata><defs
   id="defs10"><inkscape:perspective
     sodipodi:type="inkscape:persp3d"
     inkscape:vp_x="0 : 8.9965 : 1"
     inkscape:vp_y="0 : 1000 : 0"
     inkscape:vp_z="15.223 : 8.9965 : 1"
     inkscape:persp3d-origin="7.6114998 : 5.9976667 : 1"
     id="perspective14" /></defs><sodipodi:namedview
   inkscape:window-height="480"
   inkscape:window-width="640"
   inkscape:pageshadow="2"
   inkscape:pageopacity="0.0"
   guidetolerance="10.0"
   gridtolerance="10.0"
   objecttolerance="10.0"
   borderopacity="1.0"
   bordercolor="#666666"
   pagecolor="#ffffff"
   id="base"
   showgrid="false"
   showborder="true"
   borderlayer="false"
   inkscape:showpageshadow="true" />
<path
   d="M 5.69,17.993 C 4.971,17.993 4.571,17.355 4.277,16.887 C 4.187,16.742 4.085,16.577 4.014,16.51 C 3.631,16.125 1.68,14.727 0.464,13.882 L 0.11,13.637 L 0.254,13.229 C 0.258,13.213 0.804,11.631 0.743,9.29 C 0.396,8.78 -0.42,7.205 0.266,4.353 C 0.124,3.578 -0.226,1.056 1.188,0.408 L 1.3,0.357 L 1.484,0.343 C 1.692,0.343 1.886,0.431 2.036,0.594 C 2.152,0.719 2.266,0.906 2.338,1.265 C 2.395,0.957 2.501,0.664 2.689,0.438 C 2.926,0.151 3.253,0 3.635,0 C 4.233,-0.002 4.464,0.552 4.538,2.311 L 5.887,2.311 C 5.897,2.311 5.908,2.311 5.92,2.311 C 6.42,2.311 7.418,2.367 8.072,2.803 C 8.571,3.136 9.245,3.549 9.529,3.723 L 12.756,3.687 C 13.699,3.773 15.198,4.283 15.221,5.657 C 15.241,6.906 15.037,7.705 14.577,8.171 C 14.46,8.293 14.325,8.388 14.176,8.458 C 14.185,8.519 14.185,8.584 14.178,8.65 C 14.16,8.924 14.029,9.321 13.515,9.663 C 13.27,9.826 12.975,9.908 12.635,9.908 C 11.833,9.908 10.876,9.45 10.105,9.079 C 9.888,8.975 9.688,8.879 9.518,8.804 L 9.436,8.807 C 9.196,9.257 8.707,10.019 7.995,10.343 C 8.312,11.563 8.829,14.394 7.503,16.51 C 6.86,17.535 6.3,17.993 5.69,17.993 L 5.69,17.993 z"
   id="path3" />
<path
   d="M 0.785,13.419 C 0.785,13.419 1.402,11.684 1.303,9.093 C 1.303,9.093 0.007,7.678 0.845,4.37 C 0.845,4.37 0.248,1.459 1.424,0.922 C 1.424,0.922 2.041,0.564 1.802,3.453 C 1.802,3.453 2.18,2.835 2.938,2.795 C 2.938,2.795 2.5,0.563 3.636,0.563 C 3.636,0.563 3.936,0.423 3.995,2.875 L 5.889,2.875 C 5.889,2.875 7.104,2.834 7.763,3.273 C 8.419,3.712 9.376,4.29 9.376,4.29 L 12.764,4.25 C 12.764,4.25 14.638,4.43 14.658,5.665 C 14.678,6.9 14.479,8.177 13.362,8.017 C 13.362,8.017 14.039,8.635 13.203,9.193 C 12.366,9.751 10.532,8.596 9.615,8.236 L 9.077,8.256 C 9.077,8.256 8.36,9.95 7.284,9.93 C 7.284,9.93 8.6,13.697 7.025,16.208 C 5.45,18.719 4.973,16.665 4.414,16.107 C 3.855,15.549 0.785,13.419 0.785,13.419 z"
   id="path5"
   style="fill:#ffffff" />
<path
   d="M 2.101,4.648 L 2.18,4.529 C 2.18,4.529 0.927,3.761 1.463,1.878 L 1.503,1.399 C 1.502,1.399 0.427,3.492 2.101,4.648 z M 1.921,9.373 L 1.721,9.612 C 5.409,12.483 8.22,8.136 8.22,8.136 L 8.639,8.136 L 8.838,7.877 L 8.141,7.877 C 4.812,11.844 1.921,9.373 1.921,9.373 z M 4.672,4.808 C 3.935,4.788 3.337,6.204 4.692,6.423 C 6.047,6.642 5.649,6.024 6.007,5.486 C 6.365,4.948 5.409,4.828 4.672,4.808 z M 14.119,5.506 C 14.119,5.506 13.321,4.568 12.625,5.805 C 12.625,5.805 13.442,5.486 13.502,6.204 C 13.562,6.921 13.996,7.558 13.939,6.204 C 13.919,5.725 14.14,5.705 14.14,5.705 L 14.119,5.506 z M 11.102,7.808 C 11.102,7.808 13.115,8.172 13.183,8.152 L 13.183,7.97 C 13.183,7.97 12.006,7.847 11.17,7.605 L 11.102,7.808 z M 3.661,2.844 C 3.661,2.844 3.608,1.469 3.784,1.398 L 3.714,1.01 C 3.714,1.01 3.273,1.662 3.449,2.808 L 3.661,2.844 z"
   id="path7" />
</svg>