<?xml version="1.0" encoding="UTF-8" standalone="no"?>
<!-- Generator: Adobe Illustrator 13.0.0, SVG Export Plug-In . SVG Version: 6.00 Build 14948)  -->
<svg
   xmlns:dc="http://purl.org/dc/elements/1.1/"
   xmlns:cc="http://creativecommons.org/ns#"
   xmlns:rdf="http://www.w3.org/1999/02/22-rdf-syntax-ns#"
   xmlns:svg="http://www.w3.org/2000/svg"
   xmlns="http://www.w3.org/2000/svg"
   xmlns:sodipodi="http://sodipodi.sourceforge.net/DTD/sodipodi-0.dtd"
   xmlns:inkscape="http://www.inkscape.org/namespaces/inkscape"
   version="1.0"
   id="Layer_2"
   x="0px"
   y="0px"
   width="18"
   height="18"
   viewBox="0 0 17.074 17.089"
   enable-background="new 0 0 17.074 17.089"
   xml:space="preserve"
   sodipodi:version="0.32"
   inkscape:version="0.46"
   sodipodi:docname="white-Horse.svg"
   inkscape:output_extension="org.inkscape.output.svg.inkscape"
   inkscape:export-filename="C:\Documents and Settings\Aamir\My Documents\Arimaa Book Graphics\piecesSVG\omar\white-Horse.png"
   inkscape:export-xdpi="300"
   inkscape:export-ydpi="300"><metadata
   id="metadata12"><rdf:RDF><cc:Work
       rdf:about=""><dc:format>image/svg+xml</dc:format><dc:type
         rdf:resource="http://purl.org/dc/dcmitype/StillImage" /></cc:Work></rdf:RDF></metadata><defs
   id="defs10"><inkscape:perspective
     sodipodi:type="inkscape:persp3d"
     inkscape:vp_x="0 : 8.5445004 : 1"
     inkscape:vp_y="0 : 1000 : 0"
     inkscape:vp_z="17.073999 : 8.5445004 : 1"
     inkscape:persp3d-origin="8.5369997 : 5.6963336 : 1"
     id="perspective14" /></defs><sodipodi:namedview
   inkscape:window-height="840"
   inkscape:window-width="1440"
   inkscape:pageshadow="2"
   inkscape:pageopacity="0.0"
   guidetolerance="10.0"
   gridtolerance="10.0"
   objecttolerance="10.0"
   borderopacity="1.0"
   bordercolor="#666666"
   pagecolor="#ffffff"
   id="base"
   showgrid="false"
   inkscape:zoom="25.666667"
   inkscape:cx="9.0555751"
   inkscape:cy="6.7366475"
   inkscape:window-x="-4"
   inkscape:window-y="-4"
   inkscape:current-layer="Layer_2" />
<path
   d="M 6.1230749,15.807029 C 5.7247393,15.662047 5.4176234,15.429588 5.2127221,15.113655 C 4.8098342,14.499629 4.0604733,13.353407 3.0631882,12.809408 L 2.9929931,12.783859 C 2.7494248,12.695207 2.1027387,12.511551 1.4240957,12.747257 L 0.78721015,12.965597 L 0.82777668,12.293648 L 0.84825737,11.940027 L 0.40167184,11.664467 L 0.0434956,11.445987 L 0.23814238,11.074348 C 0.25922326,11.032218 0.70328991,10.201605 1.6453105,9.8922381 L 1.4128637,8.8546632 L 1.3440585,8.5489964 L 1.6049267,8.3796029 L 2.4693614,7.8150078 L 2.3636863,7.6395856 L 2.2554741,7.4632399 L 2.3198143,7.2654152 C 2.3356685,7.2165933 2.7231556,6.080933 4.5524019,5.362761 L 4.1664318,5.2653786 L 4.4161159,4.6925285 C 4.662585,4.331131 5.2100538,3.821651 5.8821645,3.835459 L 6.1030971,3.5021196 C 6.3207184,3.1857724 6.920165,2.6808443 7.6964862,2.8819925 C 7.7955353,2.8414227 7.9101121,2.816082 8.0308329,2.8159639 C 8.5019036,2.195352 9.5073034,1.035576 10.412063,1.1417233 L 10.465116,1.1485823 L 10.548998,1.1733663 C 10.796795,1.2635571 10.936452,1.4561363 10.968046,1.7482591 C 11.346709,1.5920489 11.800321,1.5062172 12.257012,1.672439 L 12.51242,1.7654 L 12.549557,2.0317655 C 12.570424,2.1954752 12.605702,3.0300734 11.145173,3.9456595 L 11.136551,3.979874 C 11.302598,4.1131002 11.458336,4.2693911 11.556477,4.4391979 C 12.054517,4.6654847 13.379919,5.4131908 14.204213,7.203484 C 14.298313,7.2607196 14.487667,7.3641185 14.800586,7.4780112 L 14.946666,7.5292645 C 14.950048,7.5304958 14.953431,7.5317271 14.956814,7.5329583 C 15.575884,7.7582812 16.664585,8.3326793 16.957625,9.1011493 C 17.077332,9.409061 17.060862,9.7200851 16.911993,10.000159 L 16.739656,10.336819 C 16.394054,11.023211 15.980362,11.846682 15.348858,12.066022 C 15.322237,12.383887 15.220927,12.788541 14.909903,13.032582 C 14.714706,13.184694 14.371725,13.327074 13.844839,13.135303 C 12.87073,12.743404 11.525508,12.200148 11.682408,11.021745 L 11.140181,10.703713 C 10.393855,10.738556 9.5459766,10.957679 9.4416263,11.244379 C 9.3622092,11.462576 9.2371791,11.735045 9.098608,12.034191 C 8.8307752,12.614803 8.3324268,13.691915 8.4835688,14.047663 C 8.8051398,14.803531 8.5440478,15.470878 7.7839386,15.833047 C 7.4401833,15.993342 6.7269214,16.026812 6.1230749,15.807029 L 6.1230749,15.807029 z"
   id="path3"
   style="fill:#020000" />
<path
   d="M 3.2786796,12.414707 C 3.2786796,12.414707 2.3196603,11.960298 1.2762805,12.321846 L 1.3123728,11.699029 L 0.63645946,11.282535 C 0.63645946,11.282535 1.129463,10.338522 2.1854541,10.234413 L 1.8537156,8.7565249 L 3.0806141,7.9512872 L 2.7472933,7.4066384 C 2.7472933,7.4066384 3.0920837,6.3435518 4.9377626,5.7012772 C 4.9377626,5.7012772 5.5636754,5.1446854 4.7878144,4.9475357 C 4.7878144,4.9475357 5.4249112,4.0128683 6.2280219,4.3693466 C 6.2280219,4.3693466 7.0484573,3.8624845 6.4713351,3.7587406 C 6.4713351,3.7587406 6.9639624,3.0473254 7.7369412,3.3708081 C 7.7369412,3.3708081 7.9764394,3.1811858 8.223916,3.3143591 C 8.223916,3.3143591 9.5037093,1.4901616 10.357414,1.5892198 C 10.357414,1.5892198 10.741724,1.5806443 10.339713,2.6851589 C 10.339713,2.6851589 11.258455,1.7897896 12.101641,2.0966842 C 12.101641,2.0966842 12.201698,2.811196 10.748108,3.6603493 L 10.626622,4.1678019 C 10.626622,4.1678019 11.19067,4.5416643 11.209438,4.7821886 C 11.209438,4.7821886 12.907356,5.3589962 13.845269,7.5028733 C 13.845269,7.5028733 14.103716,7.7243221 14.804288,7.9572814 C 15.504862,8.1902406 16.91874,9.0237843 16.513216,9.7879732 C 16.107692,10.552162 15.612524,11.794209 14.897851,11.660514 C 14.897851,11.660514 15.059273,13.140582 13.949158,12.693434 C 12.839044,12.246287 11.836041,11.79694 12.197419,10.804061 L 11.255115,10.248468 C 11.255115,10.248468 9.3115774,10.283342 9.0182267,11.089316 C 8.724876,11.895291 7.7604069,13.49521 8.0685302,14.22224 C 8.3766535,14.94927 7.8955179,15.281763 7.5886759,15.424846 C 7.2818338,15.567929 6.0773032,15.617015 5.5861834,14.866479 C 5.0950636,14.115943 4.3410823,12.992941 3.2786796,12.414707 z"
   id="path5"
   style="fill:#ffffff" />
<path
   d="M 5.7386819,7.7531508 C 4.9736065,6.1817102 6.7463758,4.8108607 6.7463758,4.8108607 C 5.5913791,5.0685703 4.233705,8.159313 4.233705,8.159313 L 4.4527598,8.196901 L 5.3224893,6.6257117 C 5.3224893,6.6257117 4.8634549,8.4105517 7.1486928,9.7077816 C 9.4339308,11.005011 10.63289,9.5134259 10.63289,9.5134259 L 10.512302,9.321083 C 8.6641764,10.959495 6.5026037,9.3251294 5.7386819,7.7531508 z M 14.887232,10.38187 C 15.244855,10.391356 15.58103,9.6019268 15.014613,9.1793141 C 15.014613,9.1793141 14.154848,8.7706093 14.120332,9.262786 C 14.085586,9.7529635 14.530455,10.372692 14.887232,10.38187 z M 8.8095493,6.3682283 C 9.199714,7.1040478 10.276509,7.1138231 10.392249,6.7958311 C 10.392249,6.7958311 9.876743,5.822839 9.0217229,5.4905665 C 9.0217229,5.4905665 8.4193845,5.6324087 8.8095493,6.3682283 z M 10.413686,3.1976673 L 10.171763,3.7886662 L 11.901432,2.2967756 L 10.413686,3.1976673 z M 10.120155,2.0095194 C 9.8207686,1.9005518 8.7666217,3.5731844 8.7666217,3.5731844 L 9.6734764,3.3525405 L 10.120155,2.0095194 z M 12.962494,10.551926 L 12.761355,10.775624 C 13.719833,11.760434 14.63901,11.734869 14.63901,11.734869 L 14.657461,11.48682 C 13.680817,11.343974 12.962494,10.551926 12.962494,10.551926 z M 2.2758226,11.730762 C 2.2758226,11.730762 3.8300898,7.9262107 4.6868318,6.3301814 C 4.6868318,6.3301814 2.4665607,10.272558 2.0136483,11.635339 L 2.2758226,11.730762 z"
   id="path7"
   style="fill:#020000" />
</svg>