<?xml version="1.0" encoding="UTF-8" standalone="no"?>
<!-- Generator: Adobe Illustrator 13.0.0, SVG Export Plug-In . SVG Version: 6.00 Build 14948)  -->
<svg
   xmlns:dc="http://purl.org/dc/elements/1.1/"
   xmlns:cc="http://creativecommons.org/ns#"
   xmlns:rdf="http://www.w3.org/1999/02/22-rdf-syntax-ns#"
   xmlns:svg="http://www.w3.org/2000/svg"
   xmlns="http://www.w3.org/2000/svg"
   xmlns:sodipodi="http://sodipodi.sourceforge.net/DTD/sodipodi-0.dtd"
   xmlns:inkscape="http://www.inkscape.org/namespaces/inkscape"
   version="1.0"
   id="Layer_2"
   x="0px"
   y="0px"
   width="18"
   height="18"
   viewBox="0 0 9.964 17.618"
   enable-background="new 0 0 9.964 17.618"
   xml:space="preserve"
   sodipodi:version="0.32"
   inkscape:version="0.46"
   sodipodi:docname="white-Rabbit.svg"
   inkscape:output_extension="org.inkscape.output.svg.inkscape"
   inkscape:export-filename="C:\Documents and Settings\Aamir\My Documents\Arimaa Book Graphics\piecesSVG\omar\white-Rabbit.png"
   inkscape:export-xdpi="300"
   inkscape:export-ydpi="300"><metadata
   id="metadata12"><rdf:RDF><cc:Work
       rdf:about=""><dc:format>image/svg+xml</dc:format><dc:type
         rdf:resource="http://purl.org/dc/dcmitype/StillImage" /></cc:Work></rdf:RDF></metadata><defs
   id="defs10"><inkscape:perspective
     sodipodi:type="inkscape:persp3d"
     inkscape:vp_x="0 : 8.809 : 1"
     inkscape:vp_y="0 : 1000 : 0"
     inkscape:vp_z="9.9639997 : 8.809 : 1"
     inkscape:persp3d-origin="4.9819999 : 5.8726667 : 1"
     id="perspective14" /></defs><sodipodi:namedview
   inkscape:window-height="667"
   inkscape:window-width="640"
   inkscape:pageshadow="2"
   inkscape:pageopacity="0.0"
   guidetolerance="10.0"
   gridtolerance="10.0"
   objecttolerance="10.0"
   borderopacity="1.0"
   bordercolor="#666666"
   pagecolor="#ffffff"
   id="base"
   showgrid="false"
   inkscape:zoom="25.666667"
   inkscape:cx="9"
   inkscape:cy="9"
   inkscape:window-x="110"
   inkscape:window-y="145"
   inkscape:current-layer="Layer_2" />
<path
   d="M 4.092,17.618 C 3.353,17.618 2.632,17.313 2.116,16.781 C 1.81,16.469 1.548,16.132 1.301,15.817 C 0.879,15.272 0.514,14.801 0.155,14.801 L 0,13.777 C 0.13,13.744 0.297,13.663 0.335,13.614 C 0.316,13.614 0.299,13.51 0.281,13.385 C 0.184,12.658 0,11.304 0.922,10.5 C 1.552,9.95 2.035,9.411 2.236,9.177 C 2.295,8.318 2.597,4.557 3.501,1.59 C 3.822,0.535 4.081,0 4.597,0 L 4.836,0 L 5.068,0.222 C 5.598,0.839 5.342,3.534 5.338,3.56 C 5.3,3.813 5.217,4.233 5.106,4.783 C 4.924,5.691 4.656,7.006 4.418,8.5 C 4.954,6.809 6.721,1.688 8.738,0.598 L 9.138,0.382 L 9.409,0.75 C 9.681,1.126 10.269,2.846 6.559,9.312 C 7.644,9.985 9.934,11.568 9.962,12.933 C 9.976,13.565 9.818,14.05 9.498,14.379 C 9.241,14.642 8.948,14.731 8.745,14.761 C 8.45,15.018 7.783,15.515 7.063,15.515 C 7.059,15.515 7.055,15.515 7.051,15.515 C 6.643,15.515 6.277,15.645 5.904,16.559 C 5.64,17.211 4.945,17.618 4.092,17.618 L 4.092,17.618 z"
   id="path3"
   style="fill:#020000" />
<path
   d="M 0.123,14.282 C 0.123,14.282 0.835,14.112 0.835,13.683 C 0.835,13.256 0.379,11.66 1.263,10.89 C 2.147,10.12 2.745,9.381 2.745,9.381 C 2.745,9.381 3.002,5.018 3.999,1.741 C 4.997,-1.537 4.939,2.739 4.826,3.48 C 4.711,4.221 4.199,6.415 3.8,9.094 L 4.769,9.122 C 4.769,9.122 6.821,2.225 8.988,1.056 C 8.988,1.056 9.985,2.425 5.852,9.493 C 5.852,9.493 9.415,11.546 9.444,12.942 C 9.473,14.338 8.533,14.253 8.533,14.253 C 8.533,14.253 7.762,15.024 7.021,14.994 C 6.28,14.967 5.796,15.449 5.424,16.362 C 5.055,17.274 3.43,17.387 2.489,16.419 C 1.548,15.45 1.034,14.253 0.123,14.282 z"
   id="path5"
   style="fill:#ffffff" />
<path
   d="M 4.886,14.756 C 4.587,14.979 4.359,15.285 4.284,15.707 C 4.113,16.676 2.232,14.225 2.232,14.225 L 1.919,14.311 C 1.919,14.311 3.372,16.334 4.113,16.134 C 4.855,15.935 4.171,15.849 4.627,15.279 C 4.715,15.169 4.854,15.067 5.02,14.975 C 5.706,14.603 5.66,14.176 4.886,14.756 z M 5.681,11.09 C 5.139,11.061 4.968,11.602 4.968,11.602 C 4.968,11.602 4.94,12.058 5.396,12.173 C 5.852,12.287 6.167,12.058 6.308,11.887 C 6.451,11.716 6.223,11.119 5.681,11.09 z M 8.104,12.572 C 7.933,12.8 8.417,12.97 8.417,12.97 C 8.76,13.683 8.959,13.058 8.959,13.058 C 8.959,13.058 9.043,12.743 9.043,12.6 C 9.043,12.457 8.275,12.344 8.104,12.572 z M 8.359,13.484 C 8.359,13.484 8.229,14.006 7.108,13.973 C 7.037,13.971 7.012,14.114 6.935,14.112 C 6.935,14.112 8.13,13.997 8.13,14.14 L 8.311,14.152 L 8.281,13.911 L 8.503,13.569 L 8.359,13.484 z M 6.2334113,7.0698485 C 5.1484113,8.0948485 5.453,9.266 5.453,9.266 L 5.652,9.35 C 6.3354719,8.4765931 6.2334113,7.0698485 6.2334113,7.0698485 z"
   id="path7"
   style="fill:#020000"
   sodipodi:nodetypes="csccssscccssccccsccscccccccccc" />
</svg>